<svg width="203" height="170" viewBox="0 0 203 170" fill="none" xmlns="http://www.w3.org/2000/svg">
<path d="M30 137C20.4 130.2 37 96.8333 46.5 81C22.5001 114.2 19.8334 139.167 21.5 147.5C37.9 153.5 62.3333 132.333 72.5 121V149H89.5V117.5L106 103L122.5 117.5V149H140V117.5L106 86C98.1667 92.5 78.1 108.9 60.5 122.5C42.9 136.1 32.8334 137.833 30 137Z" fill="#03629A"/>
<path fill-rule="evenodd" clip-rule="evenodd" d="M45 51C59.9117 51 72 39.5833 72 25.5C72 11.4167 59.9117 0 45 0C30.0883 0 18 11.4167 18 25.5C18 39.5833 30.0883 51 45 51ZM11.5 52C22.1667 52.3333 46.7 54.8 59.5 62C45.3334 80.1667 17.9001 122.7 21.5 147.5C8.16672 141 -12.5 112.8 11.5 52Z" fill="#4BAEE7"/>
<path d="M89.5 62H72.5V104L89.5 92V62Z" fill="#ED1E26"/>
<path d="M139.5 62H123V92L139.5 104V62Z" fill="#ED1E26"/>
<path d="M103 127.5V122H108.5V128H115.5V133H108.5V140H103V133H96V127.5H103Z" fill="#ED1E26"/>
<path fill-rule="evenodd" clip-rule="evenodd" d="M164.426 80.2794C154.686 84.9562 150.582 96.6428 155.259 106.382L155.328 106.349C156.452 108.376 158.282 110.023 160.629 110.883L175.88 116.472L162.487 122.903C152.931 127.492 148.904 138.959 153.492 148.515L193.675 129.22C199.087 127.136 203 121.11 203 114C203 109.147 201.177 104.799 198.299 101.865C197.066 100.427 195.459 99.2755 193.554 98.5775L181.053 93.9966L191.244 89.1028C200.984 84.4261 205.088 72.7395 200.411 63L164.426 80.2794Z" fill="#EE1C25"/>
<path d="M23.25 161.139C23.25 158.84 21.512 157.212 19.323 157.212C17.156 157.212 15.385 158.84 15.385 161.139C15.385 163.449 17.156 165.077 19.323 165.077C21.501 165.077 23.25 163.449 23.25 161.139ZM16.969 161.139C16.969 159.577 17.926 158.598 19.323 158.598C20.709 158.598 21.666 159.577 21.666 161.139C21.666 162.701 20.709 163.702 19.323 163.702C17.926 163.702 16.969 162.701 16.969 161.139ZM28.6637 165H30.2037V161.425C30.2037 159.742 29.1917 158.818 27.7727 158.818C26.9917 158.818 26.3317 159.148 25.9357 159.665V158.906H24.3957V165H25.9357V161.634C25.9357 160.655 26.4747 160.127 27.3107 160.127C28.1247 160.127 28.6637 160.655 28.6637 161.634V165ZM34.2862 160.072C35.0782 160.072 35.7162 160.578 35.7382 161.381H32.8452C32.9662 160.545 33.5492 160.072 34.2862 160.072ZM37.1792 163.086H35.5182C35.3202 163.493 34.9572 163.823 34.2972 163.823C33.5272 163.823 32.9112 163.317 32.8342 162.415H37.2892C37.3222 162.217 37.3332 162.019 37.3332 161.821C37.3332 160.006 36.0902 158.807 34.3302 158.807C32.5262 158.807 31.2722 160.028 31.2722 161.953C31.2722 163.867 32.5592 165.099 34.3302 165.099C35.8372 165.099 36.8492 164.208 37.1792 163.086ZM46.4463 162.778C46.4463 160.072 42.5083 160.93 42.5083 159.39C42.5083 158.763 42.9593 158.466 43.5643 158.488C44.2243 158.499 44.6313 158.895 44.6643 159.401H46.3583C46.2593 158.015 45.1813 157.212 43.6083 157.212C42.0243 157.212 40.9023 158.048 40.9023 159.434C40.8913 162.217 44.8513 161.216 44.8513 162.877C44.8513 163.427 44.4223 163.812 43.6963 163.812C42.9813 163.812 42.5743 163.405 42.5303 162.789H40.8803C40.9023 164.241 42.1343 165.077 43.7293 165.077C45.4783 165.077 46.4463 163.988 46.4463 162.778ZM48.0235 163.108C48.0235 164.505 48.8045 165 49.9705 165H50.9385V163.702H50.2235C49.7395 163.702 49.5745 163.526 49.5745 163.119V160.171H50.9385V158.906H49.5745V157.399H48.0235V158.906H47.2975V160.171H48.0235V163.108ZM57.9311 161.953C57.9311 160.028 56.5561 158.807 54.7961 158.807C53.0361 158.807 51.6611 160.028 51.6611 161.953C51.6611 163.867 52.9921 165.099 54.7521 165.099C56.5231 165.099 57.9311 163.867 57.9311 161.953ZM53.2231 161.953C53.2231 160.732 53.9601 160.149 54.7741 160.149C55.5881 160.149 56.3471 160.732 56.3471 161.953C56.3471 163.163 55.5661 163.757 54.7521 163.757C53.9271 163.757 53.2231 163.163 53.2231 161.953ZM60.6008 159.786V158.906H59.0608V167.904H60.6008V164.131C60.9748 164.626 61.6568 165.099 62.6138 165.099C64.1758 165.099 65.3968 163.834 65.3968 161.931C65.3968 160.028 64.1758 158.807 62.6138 158.807C61.6678 158.807 60.9638 159.269 60.6008 159.786ZM63.8238 161.931C63.8238 163.086 63.0428 163.746 62.2068 163.746C61.3818 163.746 60.6008 163.108 60.6008 161.953C60.6008 160.798 61.3818 160.16 62.2068 160.16C63.0428 160.16 63.8238 160.776 63.8238 161.931ZM73.9659 165H75.5059V157.322H73.9659V160.479H70.6769V157.322H69.1369V165H70.6769V161.733H73.9659V165ZM79.6397 160.072C80.4317 160.072 81.0697 160.578 81.0917 161.381H78.1987C78.3197 160.545 78.9027 160.072 79.6397 160.072ZM82.5327 163.086H80.8717C80.6737 163.493 80.3107 163.823 79.6507 163.823C78.8807 163.823 78.2647 163.317 78.1877 162.415H82.6427C82.6757 162.217 82.6867 162.019 82.6867 161.821C82.6867 160.006 81.4437 158.807 79.6837 158.807C77.8797 158.807 76.6257 160.028 76.6257 161.953C76.6257 163.867 77.9127 165.099 79.6837 165.099C81.1907 165.099 82.2027 164.208 82.5327 163.086ZM83.4148 161.931C83.4148 163.834 84.6468 165.099 86.1868 165.099C87.1548 165.099 87.8478 164.637 88.2108 164.109V165H89.7618V158.906H88.2108V159.775C87.8478 159.269 87.1768 158.807 86.1978 158.807C84.6468 158.807 83.4148 160.028 83.4148 161.931ZM88.2108 161.953C88.2108 163.108 87.4408 163.746 86.5938 163.746C85.7688 163.746 84.9878 163.086 84.9878 161.931C84.9878 160.776 85.7688 160.16 86.5938 160.16C87.4408 160.16 88.2108 160.798 88.2108 161.953ZM91.2658 165H92.8058V156.86H91.2658V165ZM94.5694 163.108C94.5694 164.505 95.3504 165 96.5164 165H97.4844V163.702H96.7694C96.2854 163.702 96.1204 163.526 96.1204 163.119V160.171H97.4844V158.906H96.1204V157.399H94.5694V158.906H93.8434V160.171H94.5694V163.108ZM98.592 165H100.132V161.634C100.132 160.655 100.671 160.127 101.507 160.127C102.321 160.127 102.86 160.655 102.86 161.634V165H104.4V161.425C104.4 159.742 103.399 158.818 102.024 158.818C101.21 158.818 100.528 159.148 100.132 159.665V156.86H98.592V165ZM105.468 161.953C105.468 163.867 106.722 165.099 108.482 165.099C110 165.099 111.023 164.241 111.353 162.943H109.692C109.505 163.493 109.109 163.779 108.471 163.779C107.613 163.779 107.041 163.141 107.041 161.953C107.041 160.765 107.613 160.116 108.471 160.116C109.109 160.116 109.516 160.446 109.692 160.963H111.353C111.023 159.599 110 158.807 108.482 158.807C106.722 158.807 105.468 160.039 105.468 161.953ZM112.086 161.931C112.086 163.834 113.318 165.099 114.858 165.099C115.826 165.099 116.519 164.637 116.882 164.109V165H118.433V158.906H116.882V159.775C116.519 159.269 115.848 158.807 114.869 158.807C113.318 158.807 112.086 160.028 112.086 161.931ZM116.882 161.953C116.882 163.108 116.112 163.746 115.265 163.746C114.44 163.746 113.659 163.086 113.659 161.931C113.659 160.776 114.44 160.16 115.265 160.16C116.112 160.16 116.882 160.798 116.882 161.953ZM121.477 161.964C121.477 160.787 122.027 160.435 122.94 160.435H123.347V158.818C122.5 158.818 121.862 159.225 121.477 159.852V158.906H119.937V165H121.477V161.964ZM127.002 160.072C127.794 160.072 128.432 160.578 128.454 161.381H125.561C125.682 160.545 126.265 160.072 127.002 160.072ZM129.895 163.086H128.234C128.036 163.493 127.673 163.823 127.013 163.823C126.243 163.823 125.627 163.317 125.55 162.415H130.005C130.038 162.217 130.049 162.019 130.049 161.821C130.049 160.006 128.806 158.807 127.046 158.807C125.242 158.807 123.988 160.028 123.988 161.953C123.988 163.867 125.275 165.099 127.046 165.099C128.553 165.099 129.565 164.208 129.895 163.086ZM139.162 162.778C139.162 160.072 135.224 160.93 135.224 159.39C135.224 158.763 135.675 158.466 136.28 158.488C136.94 158.499 137.347 158.895 137.38 159.401H139.074C138.975 158.015 137.897 157.212 136.324 157.212C134.74 157.212 133.618 158.048 133.618 159.434C133.607 162.217 137.567 161.216 137.567 162.877C137.567 163.427 137.138 163.812 136.412 163.812C135.697 163.812 135.29 163.405 135.246 162.789H133.596C133.618 164.241 134.85 165.077 136.445 165.077C138.194 165.077 139.162 163.988 139.162 162.778ZM146.382 161.953C146.382 160.028 145.007 158.807 143.247 158.807C141.487 158.807 140.112 160.028 140.112 161.953C140.112 163.867 141.443 165.099 143.203 165.099C144.974 165.099 146.382 163.867 146.382 161.953ZM141.674 161.953C141.674 160.732 142.411 160.149 143.225 160.149C144.039 160.149 144.798 160.732 144.798 161.953C144.798 163.163 144.017 163.757 143.203 163.757C142.378 163.757 141.674 163.163 141.674 161.953ZM147.512 165H149.052V156.86H147.512V165ZM156.326 158.906H154.775V162.261C154.775 163.24 154.247 163.768 153.411 163.768C152.597 163.768 152.058 163.24 152.058 162.261V158.906H150.518V162.481C150.518 164.153 151.541 165.077 152.96 165.077C153.719 165.077 154.39 164.747 154.775 164.23V165H156.326V158.906ZM158.088 163.108C158.088 164.505 158.869 165 160.035 165H161.003V163.702H160.288C159.804 163.702 159.639 163.526 159.639 163.119V160.171H161.003V158.906H159.639V157.399H158.088V158.906H157.362V160.171H158.088V163.108ZM162.111 165H163.651V158.906H162.111V165ZM162.892 158.18C163.431 158.18 163.838 157.784 163.838 157.278C163.838 156.772 163.431 156.376 162.892 156.376C162.342 156.376 161.946 156.772 161.946 157.278C161.946 157.784 162.342 158.18 162.892 158.18ZM171.057 161.953C171.057 160.028 169.682 158.807 167.922 158.807C166.162 158.807 164.787 160.028 164.787 161.953C164.787 163.867 166.118 165.099 167.878 165.099C169.649 165.099 171.057 163.867 171.057 161.953ZM166.349 161.953C166.349 160.732 167.086 160.149 167.9 160.149C168.714 160.149 169.473 160.732 169.473 161.953C169.473 163.163 168.692 163.757 167.878 163.757C167.053 163.757 166.349 163.163 166.349 161.953ZM176.455 165H177.995V161.425C177.995 159.742 176.983 158.818 175.564 158.818C174.783 158.818 174.123 159.148 173.727 159.665V158.906H172.187V165H173.727V161.634C173.727 160.655 174.266 160.127 175.102 160.127C175.916 160.127 176.455 160.655 176.455 161.634V165ZM184.189 163.262C184.145 161.029 180.768 161.722 180.768 160.611C180.768 160.259 181.065 160.028 181.637 160.028C182.242 160.028 182.616 160.347 182.66 160.82H184.134C184.046 159.61 183.155 158.807 181.681 158.807C180.174 158.807 179.272 159.621 179.272 160.633C179.272 162.866 182.715 162.173 182.715 163.262C182.715 163.614 182.385 163.889 181.78 163.889C181.164 163.889 180.735 163.537 180.68 163.075H179.129C179.195 164.208 180.262 165.099 181.791 165.099C183.276 165.099 184.189 164.307 184.189 163.262Z" fill="#4BAEE7"/>
</svg>
