<svg width="404" height="245" viewBox="0 0 404 245" fill="none" xmlns="http://www.w3.org/2000/svg">
<path d="M83.7363 43.2699H93.4588V87.3521H83.7363V43.2699ZM100.182 43.2699H109.905V61.1204H116.694V43.2699H126.471V87.3521H116.694V68.0865H109.905V87.3521H100.182V43.2699ZM144.849 88.0052C140.648 88.0052 137.516 86.8986 135.452 84.6854C133.424 82.4359 132.338 78.8803 132.193 74.0186L140.504 72.7669C140.54 75.5606 140.866 77.5742 141.481 78.8078C142.133 80.0051 143.093 80.6037 144.36 80.6037C145.989 80.6037 146.804 79.5334 146.804 77.3928C146.804 75.6875 146.406 74.2181 145.609 72.9846C144.849 71.751 143.636 70.4267 141.97 69.0117L138.168 65.6919C136.285 64.0955 134.819 62.4084 133.768 60.6306C132.755 58.8166 132.248 56.6759 132.248 54.2088C132.248 50.5081 133.334 47.6599 135.507 45.6644C137.715 43.669 140.739 42.6712 144.577 42.6712C148.741 42.6712 151.566 43.8866 153.051 46.3175C154.571 48.7484 155.386 51.7053 155.495 55.1884L147.13 56.2224C147.058 53.9367 146.84 52.304 146.478 51.3244C146.152 50.3085 145.41 49.8006 144.251 49.8006C143.419 49.8006 142.767 50.1634 142.296 50.889C141.861 51.5784 141.644 52.3584 141.644 53.2292C141.644 54.7167 141.97 55.9684 142.622 56.9843C143.31 58.0002 144.396 59.1612 145.881 60.4674L149.52 63.6783C151.693 65.5287 153.376 67.4879 154.571 69.5559C155.766 71.624 156.364 74.073 156.364 76.903C156.364 78.971 155.875 80.8577 154.897 82.5629C153.956 84.2319 152.616 85.5562 150.878 86.5358C149.14 87.5154 147.13 88.0052 144.849 88.0052ZM174.969 43.2699H186.429C189.29 43.2699 191.716 43.5782 193.707 44.195C195.735 44.7755 197.365 45.9184 198.596 47.6237C199.827 49.3289 200.443 51.7235 200.443 54.8074C200.443 57.4197 199.881 59.4515 198.759 60.9028C197.636 62.354 196.043 63.2792 193.979 63.6783C196.514 64.0048 198.451 65.0751 199.791 66.8892C201.131 68.7033 201.8 71.1705 201.8 74.2907C201.8 82.9983 197.365 87.3521 188.493 87.3521H174.969V43.2699ZM186.592 60.9028C188.656 60.9028 190.05 60.4311 190.774 59.4878C191.535 58.5444 191.915 57.075 191.915 55.0795C191.915 53.338 191.444 52.0319 190.503 51.1611C189.561 50.2541 188.185 49.8006 186.375 49.8006H184.691V60.9028H186.592ZM186.755 80.5493C188.819 80.5493 190.267 80.0413 191.1 79.0255C191.969 77.9733 192.404 76.3406 192.404 74.1274C192.404 71.624 191.969 69.8643 191.1 68.8484C190.267 67.8326 188.801 67.3246 186.701 67.3246H184.691V80.5493H186.755ZM206.9 43.2699H216.623V80.767H226.726V87.3521H206.9V43.2699ZM242.893 88.0052C238.149 88.0052 234.764 86.7897 232.737 84.3589C230.709 81.8917 229.695 78.2635 229.695 73.4744V57.0932C229.695 52.304 230.709 48.7121 232.737 46.3175C234.764 43.8866 238.149 42.6712 242.893 42.6712C247.673 42.6712 251.076 43.8866 253.104 46.3175C255.168 48.7484 256.2 52.3403 256.2 57.0932V73.4744C256.2 78.2635 255.168 81.8917 253.104 84.3589C251.076 86.7897 247.673 88.0052 242.893 88.0052ZM242.893 81.0935C244.269 81.0935 245.174 80.64 245.609 79.7329C246.043 78.7896 246.26 77.5198 246.26 75.9234V54.6986C246.26 53.0659 246.043 51.7961 245.609 50.889C245.174 49.982 244.269 49.5284 242.893 49.5284C241.589 49.5284 240.72 50.0001 240.286 50.9434C239.851 51.8505 239.634 53.1022 239.634 54.6986V75.9234C239.634 77.5198 239.833 78.7896 240.231 79.7329C240.63 80.64 241.517 81.0935 242.893 81.0935ZM274.72 88.0052C269.976 88.0052 266.59 86.7897 264.563 84.3589C262.535 81.8917 261.521 78.2635 261.521 73.4744V57.0932C261.521 52.304 262.535 48.7121 264.563 46.3175C266.59 43.8866 269.976 42.6712 274.72 42.6712C279.499 42.6712 282.903 43.8866 284.931 46.3175C286.995 48.7484 288.027 52.3403 288.027 57.0932V73.4744C288.027 78.2635 286.995 81.8917 284.931 84.3589C282.903 86.7897 279.499 88.0052 274.72 88.0052ZM274.72 81.0935C276.096 81.0935 277.001 80.64 277.435 79.7329C277.87 78.7896 278.087 77.5198 278.087 75.9234V54.6986C278.087 53.0659 277.87 51.7961 277.435 50.889C277.001 49.982 276.096 49.5284 274.72 49.5284C273.416 49.5284 272.547 50.0001 272.112 50.9434C271.678 51.8505 271.461 53.1022 271.461 54.6986V75.9234C271.461 77.5198 271.66 78.7896 272.058 79.7329C272.457 80.64 273.344 81.0935 274.72 81.0935ZM293.943 43.2699H305.078C308.88 43.2699 311.849 43.7415 313.985 44.6848C316.122 45.6282 317.625 47.1157 318.494 49.1475C319.399 51.143 319.852 53.8278 319.852 57.202V73.2022C319.852 76.6127 319.399 79.3339 318.494 81.3656C317.625 83.3974 316.122 84.9031 313.985 85.8827C311.885 86.8623 308.952 87.3521 305.186 87.3521H293.943V43.2699ZM305.186 80.6037C306.598 80.6037 307.631 80.4042 308.282 80.0051C308.97 79.5697 309.405 78.971 309.586 78.2091C309.767 77.4109 309.857 76.2499 309.857 74.7261V55.5149C309.857 54.0999 309.749 53.0296 309.532 52.304C309.35 51.5421 308.916 50.9797 308.228 50.6169C307.576 50.2541 306.544 50.0727 305.132 50.0727H303.665V80.6037H305.186Z" fill="#981D22"/>
<path d="M24.6382 112.568H46.799L63.2024 200.732H45.2782L42.3452 182.12H29.418L26.3763 200.732H8.01758L24.6382 112.568ZM40.4984 170.473L35.8273 136.078L31.1561 170.473H40.4984ZM72.0864 112.568H96.3113C105.943 112.568 113.222 114.273 118.146 117.684C123.071 121.094 125.533 127.153 125.533 135.861C125.533 141.738 124.773 146.419 123.252 149.902C121.731 153.385 118.907 156.106 114.779 158.065L126.837 200.732H106.74L97.0717 161.222H91.5315V200.732H72.0864V112.568ZM96.9631 150.011C100.874 150.011 103.59 148.995 105.11 146.963C106.704 144.859 107.5 141.738 107.5 137.602C107.5 133.611 106.776 130.636 105.328 128.677C103.879 126.645 101.381 125.629 97.8321 125.629H91.5315V150.011H96.9631ZM161.577 202.039C152.017 202.039 145.21 199.535 141.154 194.528C137.171 189.449 135.179 182.156 135.179 172.65V140.868C135.179 131.144 137.171 123.815 141.154 118.881C145.137 113.874 151.945 111.371 161.577 111.371C170.774 111.371 177.292 113.584 181.131 118.01C184.969 122.437 186.888 128.713 186.888 136.84V144.46H167.878V135.643C167.878 132.233 167.515 129.62 166.791 127.806C166.067 125.992 164.329 125.085 161.577 125.085C158.825 125.085 157.014 126.065 156.145 128.024C155.276 129.911 154.842 132.559 154.842 135.97V177.44C154.842 180.923 155.276 183.607 156.145 185.494C157.087 187.308 158.897 188.215 161.577 188.215C164.256 188.215 165.958 187.308 166.683 185.494C167.479 183.607 167.878 180.923 167.878 177.44V168.188H186.888V175.807C186.888 184.079 184.969 190.537 181.131 195.181C177.292 199.753 170.774 202.039 161.577 202.039ZM197.911 112.568H217.356V148.269H230.935V112.568H250.49V200.732H230.935V162.201H217.356V200.732H197.911V112.568ZM263.999 112.568H283.444V200.732H263.999V112.568ZM292.435 112.568H309.056L318.507 172.433L327.306 112.568H344.904L328.827 200.732H308.296L292.435 112.568ZM353.744 112.568H393.286V125.847H373.189V147.725H388.506V161.222H373.189V187.562H393.503V200.732H353.744V112.568Z" fill="#981D22"/>
<rect x="2" width="402" height="12" fill="#981D22"/>
<rect y="233" width="402" height="12" fill="#981D22"/>
</svg>
